<svg xmlns="http://www.w3.org/2000/svg" viewBox="0 0 860 560" font-family="-apple-system, Segoe UI, Helvetica, Arial, sans-serif" font-size="14">
<rect width="860" height="560" fill="#ffffff"/>
<text x="245" y="38" text-anchor="middle" font-weight="700" font-size="16" fill="#343a40">Plateau: one segment</text>
<text x="645" y="38" text-anchor="middle" font-weight="700" font-size="16" fill="#343a40">Spikes: several segments</text>
<text x="22" y="170" text-anchor="middle" font-weight="700" fill="#343a40" transform="rotate(-90 22 170)">clean</text>
<text x="22" y="420" text-anchor="middle" font-weight="700" fill="#343a40" transform="rotate(-90 22 420)">jagged</text>
<rect x="50" y="180.0" width="390" height="90.0" fill="#f1f3f5"/>
<line x1="50" y1="270" x2="440" y2="270" stroke="#343a40" stroke-width="1.2"/>
<line x1="50" y1="70" x2="50" y2="270" stroke="#343a40" stroke-width="1.2"/>
<line x1="50" y1="180.0" x2="440" y2="180.0" stroke="#c92a2a" stroke-width="1.8"/>
<line x1="128.4" y1="180.0" x2="363.6" y2="180.0" stroke="#2b8a3e" stroke-width="6"/>
<path d="M50.0,246.0 L52.0,246.0 L53.9,246.0 L55.9,246.0 L57.8,246.0 L59.8,246.0 L61.8,246.0 L63.7,246.0 L65.7,246.0 L67.6,246.0 L69.6,246.0 L71.6,246.0 L73.5,246.0 L75.5,246.0 L77.4,246.0 L79.4,246.0 L81.4,246.0 L83.3,246.0 L85.3,246.0 L87.2,246.0 L89.2,246.0 L91.2,246.0 L93.1,246.0 L95.1,246.0 L97.0,246.0 L99.0,246.0 L101.0,246.0 L102.9,246.0 L104.9,246.0 L106.8,246.0 L108.8,246.0 L110.8,239.4 L112.7,232.8 L114.7,226.2 L116.6,219.6 L118.6,213.0 L120.6,206.4 L122.5,199.8 L124.5,193.2 L126.4,186.6 L128.4,180.0 L130.4,173.4 L132.3,166.8 L134.3,160.2 L136.2,153.6 L138.2,147.0 L140.2,140.4 L142.1,133.8 L144.1,127.2 L146.0,120.6 L148.0,114.0 L149.9,114.0 L151.9,114.0 L153.9,114.0 L155.8,114.0 L157.8,114.0 L159.7,114.0 L161.7,114.0 L163.7,114.0 L165.6,114.0 L167.6,114.0 L169.5,114.0 L171.5,114.0 L173.5,114.0 L175.4,114.0 L177.4,114.0 L179.3,114.0 L181.3,114.0 L183.3,114.0 L185.2,114.0 L187.2,114.0 L189.1,114.0 L191.1,114.0 L193.1,114.0 L195.0,114.0 L197.0,114.0 L198.9,114.0 L200.9,114.0 L202.9,114.0 L204.8,114.0 L206.8,114.0 L208.7,114.0 L210.7,114.0 L212.7,114.0 L214.6,114.0 L216.6,114.0 L218.5,114.0 L220.5,114.0 L222.5,114.0 L224.4,114.0 L226.4,114.0 L228.3,114.0 L230.3,114.0 L232.3,114.0 L234.2,114.0 L236.2,114.0 L238.1,114.0 L240.1,114.0 L242.1,114.0 L244.0,114.0 L246.0,114.0 L247.9,114.0 L249.9,114.0 L251.9,114.0 L253.8,114.0 L255.8,114.0 L257.7,114.0 L259.7,114.0 L261.7,114.0 L263.6,114.0 L265.6,114.0 L267.5,114.0 L269.5,114.0 L271.5,114.0 L273.4,114.0 L275.4,114.0 L277.3,114.0 L279.3,114.0 L281.3,114.0 L283.2,114.0 L285.2,114.0 L287.1,114.0 L289.1,114.0 L291.1,114.0 L293.0,114.0 L295.0,114.0 L296.9,114.0 L298.9,114.0 L300.9,114.0 L302.8,114.0 L304.8,114.0 L306.7,114.0 L308.7,114.0 L310.7,114.0 L312.6,114.0 L314.6,114.0 L316.5,114.0 L318.5,114.0 L320.5,114.0 L322.4,114.0 L324.4,114.0 L326.3,114.0 L328.3,114.0 L330.3,114.0 L332.2,114.0 L334.2,114.0 L336.1,114.0 L338.1,114.0 L340.1,114.0 L342.0,114.0 L344.0,114.0 L345.9,120.6 L347.9,127.2 L349.8,133.8 L351.8,140.4 L353.8,147.0 L355.7,153.6 L357.7,160.2 L359.6,166.8 L361.6,173.4 L363.6,180.0 L365.5,186.6 L367.5,193.2 L369.4,199.8 L371.4,206.4 L373.4,213.0 L375.3,219.6 L377.3,226.2 L379.2,232.8 L381.2,239.4 L383.2,246.0 L385.1,246.0 L387.1,246.0 L389.0,246.0 L391.0,246.0 L393.0,246.0 L394.9,246.0 L396.9,246.0 L398.8,246.0 L400.8,246.0 L402.8,246.0 L404.7,246.0 L406.7,246.0 L408.6,246.0 L410.6,246.0 L412.6,246.0 L414.5,246.0 L416.5,246.0 L418.4,246.0 L420.4,246.0 L422.4,246.0 L424.3,246.0 L426.3,246.0 L428.2,246.0 L430.2,246.0 L432.2,246.0 L434.1,246.0 L436.1,246.0 L438.0,246.0 L440.0,246.0" fill="none" stroke="#1971c2" stroke-width="2.5" stroke-linejoin="round"/>
<text x="434" y="86" text-anchor="end" fill="#2b8a3e" font-weight="600">1 segment</text>
<text x="56" y="174.0" fill="#c92a2a" font-size="12">threshold</text>
<rect x="450" y="180.0" width="390" height="90.0" fill="#f1f3f5"/>
<line x1="450" y1="270" x2="840" y2="270" stroke="#343a40" stroke-width="1.2"/>
<line x1="450" y1="70" x2="450" y2="270" stroke="#343a40" stroke-width="1.2"/>
<line x1="450" y1="180.0" x2="840" y2="180.0" stroke="#c92a2a" stroke-width="1.8"/>
<line x1="508.8" y1="180.0" x2="567.6" y2="180.0" stroke="#2b8a3e" stroke-width="6"/>
<line x1="618.5" y1="180.0" x2="677.3" y2="180.0" stroke="#2b8a3e" stroke-width="6"/>
<line x1="728.3" y1="180.0" x2="787.1" y2="180.0" stroke="#2b8a3e" stroke-width="6"/>
<path d="M450.0,246.0 L452.0,246.0 L453.9,246.0 L455.9,246.0 L457.8,246.0 L459.8,246.0 L461.8,246.0 L463.7,246.0 L465.7,246.0 L467.6,246.0 L469.6,246.0 L471.6,246.0 L473.5,246.0 L475.5,246.0 L477.4,246.0 L479.4,246.0 L481.4,246.0 L483.3,246.0 L485.3,246.0 L487.2,246.0 L489.2,246.0 L491.2,246.0 L493.1,246.0 L495.1,246.0 L497.0,246.0 L499.0,246.0 L501.0,246.0 L502.9,224.0 L504.9,202.0 L506.8,180.0 L508.8,158.0 L510.8,136.0 L512.7,114.0 L514.7,114.0 L516.6,114.0 L518.6,114.0 L520.6,114.0 L522.5,114.0 L524.5,114.0 L526.4,114.0 L528.4,114.0 L530.4,114.0 L532.3,114.0 L534.3,114.0 L536.2,114.0 L538.2,114.0 L540.2,114.0 L542.1,114.0 L544.1,114.0 L546.0,114.0 L548.0,114.0 L549.9,114.0 L551.9,114.0 L553.9,114.0 L555.8,114.0 L557.8,114.0 L559.7,114.0 L561.7,136.0 L563.7,158.0 L565.6,180.0 L567.6,202.0 L569.5,224.0 L571.5,246.0 L573.5,246.0 L575.4,246.0 L577.4,246.0 L579.3,246.0 L581.3,246.0 L583.3,246.0 L585.2,246.0 L587.2,246.0 L589.1,246.0 L591.1,246.0 L593.1,246.0 L595.0,246.0 L597.0,246.0 L598.9,246.0 L600.9,246.0 L602.9,246.0 L604.8,246.0 L606.8,246.0 L608.7,246.0 L610.7,246.0 L612.7,224.0 L614.6,202.0 L616.6,180.0 L618.5,158.0 L620.5,136.0 L622.5,114.0 L624.4,114.0 L626.4,114.0 L628.3,114.0 L630.3,114.0 L632.3,114.0 L634.2,114.0 L636.2,114.0 L638.1,114.0 L640.1,114.0 L642.1,114.0 L644.0,114.0 L646.0,114.0 L647.9,114.0 L649.9,114.0 L651.9,114.0 L653.8,114.0 L655.8,114.0 L657.7,114.0 L659.7,114.0 L661.7,114.0 L663.6,114.0 L665.6,114.0 L667.5,114.0 L669.5,114.0 L671.5,136.0 L673.4,158.0 L675.4,180.0 L677.3,202.0 L679.3,224.0 L681.3,246.0 L683.2,246.0 L685.2,246.0 L687.1,246.0 L689.1,246.0 L691.1,246.0 L693.0,246.0 L695.0,246.0 L696.9,246.0 L698.9,246.0 L700.9,246.0 L702.8,246.0 L704.8,246.0 L706.7,246.0 L708.7,246.0 L710.7,246.0 L712.6,246.0 L714.6,246.0 L716.5,246.0 L718.5,246.0 L720.5,246.0 L722.4,224.0 L724.4,202.0 L726.3,180.0 L728.3,158.0 L730.3,136.0 L732.2,114.0 L734.2,114.0 L736.1,114.0 L738.1,114.0 L740.1,114.0 L742.0,114.0 L744.0,114.0 L745.9,114.0 L747.9,114.0 L749.8,114.0 L751.8,114.0 L753.8,114.0 L755.7,114.0 L757.7,114.0 L759.6,114.0 L761.6,114.0 L763.6,114.0 L765.5,114.0 L767.5,114.0 L769.4,114.0 L771.4,114.0 L773.4,114.0 L775.3,114.0 L777.3,114.0 L779.2,114.0 L781.2,136.0 L783.2,158.0 L785.1,180.0 L787.1,202.0 L789.0,224.0 L791.0,246.0 L793.0,246.0 L794.9,246.0 L796.9,246.0 L798.8,246.0 L800.8,246.0 L802.8,246.0 L804.7,246.0 L806.7,246.0 L808.6,246.0 L810.6,246.0 L812.6,246.0 L814.5,246.0 L816.5,246.0 L818.4,246.0 L820.4,246.0 L822.4,246.0 L824.3,246.0 L826.3,246.0 L828.2,246.0 L830.2,246.0 L832.2,246.0 L834.1,246.0 L836.1,246.0 L838.0,246.0 L840.0,246.0" fill="none" stroke="#1971c2" stroke-width="2.5" stroke-linejoin="round"/>
<text x="834" y="86" text-anchor="end" fill="#2b8a3e" font-weight="600">3 segments</text>
<text x="456" y="174.0" fill="#c92a2a" font-size="12">threshold</text>
<rect x="50" y="430.0" width="390" height="90.0" fill="#f1f3f5"/>
<line x1="50" y1="520" x2="440" y2="520" stroke="#343a40" stroke-width="1.2"/>
<line x1="50" y1="320" x2="50" y2="520" stroke="#343a40" stroke-width="1.2"/>
<line x1="50" y1="430.0" x2="440" y2="430.0" stroke="#c92a2a" stroke-width="1.8"/>
<line x1="134.3" y1="430.0" x2="365.5" y2="430.0" stroke="#2b8a3e" stroke-width="6"/>
<path d="M50.0,500.1 L52.0,499.9 L53.9,499.5 L55.9,498.8 L57.8,498.1 L59.8,497.3 L61.8,496.5 L63.7,495.9 L65.7,495.5 L67.6,495.3 L69.6,495.4 L71.6,495.7 L73.5,496.0 L75.5,496.4 L77.4,496.9 L79.4,497.3 L81.4,497.7 L83.3,497.9 L85.3,498.0 L87.2,497.9 L89.2,497.6 L91.2,497.1 L93.1,496.5 L95.1,495.9 L97.0,495.3 L99.0,494.8 L101.0,494.5 L102.9,494.4 L104.9,494.4 L106.8,494.3 L108.8,494.3 L110.8,487.6 L112.7,481.0 L114.7,474.3 L116.6,467.7 L118.6,461.1 L120.6,449.9 L122.5,444.3 L124.5,440.3 L126.4,437.6 L128.4,435.6 L130.4,433.8 L132.3,431.8 L134.3,429.1 L136.2,425.2 L138.2,419.6 L140.2,413.1 L142.1,406.7 L144.1,400.5 L146.0,394.3 L148.0,388.2 L149.9,388.6 L151.9,389.0 L153.9,389.2 L155.8,389.3 L157.8,387.8 L159.7,383.9 L161.7,378.2 L163.7,371.4 L165.6,364.3 L167.6,357.6 L169.5,351.9 L171.5,347.9 L173.5,346.5 L175.4,347.5 L177.4,350.2 L179.3,354.2 L181.3,359.0 L183.3,364.0 L185.2,368.7 L187.2,372.7 L189.1,375.5 L191.1,376.5 L193.1,376.6 L195.0,376.7 L197.0,376.9 L198.9,377.1 L200.9,377.3 L202.9,377.5 L204.8,377.7 L206.8,377.8 L208.7,377.8 L210.7,376.5 L212.7,372.8 L214.6,367.6 L216.6,361.3 L218.5,354.7 L220.5,348.5 L222.5,343.2 L224.4,339.6 L226.4,338.2 L228.3,339.2 L230.3,341.7 L232.3,345.3 L234.2,349.6 L236.2,354.2 L238.1,358.5 L240.1,362.1 L242.1,364.6 L244.0,365.5 L246.0,364.9 L247.9,363.1 L249.9,360.6 L251.9,357.6 L253.8,354.4 L255.8,351.4 L257.7,348.9 L259.7,347.2 L261.7,346.5 L263.6,347.1 L265.6,348.9 L267.5,351.4 L269.5,354.3 L271.5,357.4 L273.4,360.4 L275.4,362.9 L277.3,364.6 L279.3,365.2 L281.3,364.9 L283.2,364.2 L285.2,363.0 L287.1,361.7 L289.1,360.3 L291.1,359.0 L293.0,357.8 L295.0,357.1 L296.9,356.8 L298.9,357.6 L300.9,360.0 L302.8,363.4 L304.8,367.4 L306.7,371.6 L308.7,375.6 L310.7,379.0 L312.6,381.3 L314.6,382.2 L316.5,381.3 L318.5,379.0 L320.5,375.6 L322.4,371.7 L324.4,367.5 L326.3,363.5 L328.3,360.2 L330.3,357.9 L332.2,357.0 L334.2,356.6 L336.1,355.5 L338.1,353.8 L340.1,351.9 L342.0,349.9 L344.0,348.0 L345.9,353.0 L347.9,358.5 L349.8,364.7 L351.8,371.9 L353.8,380.1 L355.7,389.1 L357.7,398.5 L359.6,408.1 L361.6,417.5 L363.6,426.5 L365.5,434.8 L367.5,442.0 L369.4,448.2 L371.4,453.8 L373.4,461.8 L375.3,467.8 L377.3,473.9 L379.2,479.9 L381.2,486.1 L383.2,492.4 L385.1,492.2 L387.1,492.3 L389.0,492.4 L391.0,492.5 L393.0,492.7 L394.9,492.9 L396.9,493.0 L398.8,493.2 L400.8,493.3 L402.8,493.3 L404.7,493.7 L406.7,494.5 L408.6,495.8 L410.6,497.3 L412.6,498.8 L414.5,500.3 L416.5,501.6 L418.4,502.5 L420.4,502.8 L422.4,502.4 L424.3,501.4 L426.3,500.0 L428.2,498.3 L430.2,496.5 L432.2,494.8 L434.1,493.3 L436.1,492.3 L438.0,492.0 L440.0,492.1" fill="none" stroke="#1971c2" stroke-width="2.5" stroke-linejoin="round"/>
<text x="434" y="336" text-anchor="end" fill="#2b8a3e" font-weight="600">1 segment</text>
<text x="56" y="424.0" fill="#c92a2a" font-size="12">threshold</text>
<rect x="450" y="430.0" width="390" height="90.0" fill="#f1f3f5"/>
<line x1="450" y1="520" x2="840" y2="520" stroke="#343a40" stroke-width="1.2"/>
<line x1="450" y1="320" x2="450" y2="520" stroke="#343a40" stroke-width="1.2"/>
<line x1="450" y1="430.0" x2="840" y2="430.0" stroke="#c92a2a" stroke-width="1.8"/>
<line x1="516.6" y1="430.0" x2="528.4" y2="430.0" stroke="#2b8a3e" stroke-width="6"/>
<line x1="538.2" y1="430.0" x2="583.3" y2="430.0" stroke="#2b8a3e" stroke-width="6"/>
<line x1="600.9" y1="430.0" x2="602.9" y2="430.0" stroke="#2b8a3e" stroke-width="6"/>
<line x1="620.5" y1="430.0" x2="651.9" y2="430.0" stroke="#2b8a3e" stroke-width="6"/>
<line x1="661.7" y1="430.0" x2="720.5" y2="430.0" stroke="#2b8a3e" stroke-width="6"/>
<line x1="745.9" y1="430.0" x2="759.6" y2="430.0" stroke="#2b8a3e" stroke-width="6"/>
<path d="M450.0,496.0 L452.0,496.0 L453.9,496.0 L455.9,496.0 L457.8,496.0 L459.8,496.0 L461.8,496.0 L463.7,496.0 L465.7,496.0 L467.6,496.0 L469.6,496.0 L471.6,496.0 L473.5,496.0 L475.5,496.0 L477.4,496.0 L479.4,496.0 L481.4,496.0 L483.3,496.0 L485.3,496.0 L487.2,496.0 L489.2,496.0 L491.2,496.0 L493.1,496.0 L495.1,496.0 L497.0,496.0 L499.0,489.4 L501.0,482.7 L502.9,475.9 L504.9,469.2 L506.8,462.3 L508.8,455.2 L510.8,447.8 L512.7,440.1 L514.7,432.3 L516.6,424.6 L518.6,417.2 L520.6,411.6 L522.5,415.5 L524.5,420.8 L526.4,426.7 L528.4,432.0 L530.4,435.9 L532.3,437.4 L534.3,436.2 L536.2,433.0 L538.2,428.7 L540.2,423.9 L542.1,419.6 L544.1,416.4 L546.0,415.2 L548.0,414.7 L549.9,413.6 L551.9,412.0 L553.9,410.3 L555.8,408.8 L557.8,407.6 L559.7,407.2 L561.7,406.6 L563.7,405.0 L565.6,402.8 L567.6,400.4 L569.5,398.3 L571.5,396.7 L573.5,396.1 L575.4,398.7 L577.4,405.5 L579.3,414.8 L581.3,424.9 L583.3,434.2 L585.2,441.0 L587.2,443.6 L589.1,442.8 L591.1,440.8 L593.1,438.0 L595.0,435.0 L597.0,432.2 L598.9,430.2 L600.9,429.4 L602.9,430.2 L604.8,432.2 L606.8,435.1 L608.7,438.1 L610.7,441.0 L612.7,443.0 L614.6,443.8 L616.6,441.1 L618.5,434.1 L620.5,424.6 L622.5,414.2 L624.4,404.6 L626.4,397.7 L628.3,394.9 L630.3,395.4 L632.3,396.5 L634.2,398.1 L636.2,399.7 L638.1,401.3 L640.1,402.4 L642.1,402.8 L644.0,405.3 L646.0,411.6 L647.9,420.3 L649.9,429.7 L651.9,438.4 L653.8,444.7 L655.8,447.2 L657.7,443.6 L659.7,434.5 L661.7,422.0 L663.6,408.4 L665.6,395.9 L667.5,386.8 L669.5,383.2 L671.5,383.3 L673.4,383.4 L675.4,383.7 L677.3,383.9 L679.3,384.2 L681.3,384.3 L683.2,384.4 L685.2,385.6 L687.1,388.6 L689.1,392.7 L691.1,397.2 L693.0,401.3 L695.0,404.4 L696.9,405.5 L698.9,405.7 L700.9,406.1 L702.8,406.6 L704.8,407.1 L706.7,407.6 L708.7,408.0 L710.7,408.1 L712.6,409.9 L714.6,414.3 L716.5,420.4 L718.5,427.0 L720.5,433.1 L722.4,437.6 L724.4,439.3 L726.3,439.8 L728.3,441.2 L730.3,443.1 L732.2,445.2 L734.2,447.1 L736.1,448.4 L738.1,449.0 L740.1,447.0 L742.0,442.1 L744.0,435.2 L745.9,427.8 L747.9,421.0 L749.8,416.0 L751.8,414.1 L753.8,415.8 L755.7,420.4 L757.7,426.6 L759.6,433.4 L761.6,439.6 L763.6,444.2 L765.5,446.0 L767.5,445.5 L769.4,444.2 L771.4,442.5 L773.4,445.2 L775.3,448.4 L777.3,452.2 L779.2,456.7 L781.2,461.5 L783.2,466.2 L785.1,470.9 L787.1,475.6 L789.0,480.6 L791.0,485.6 L793.0,490.8 L794.9,496.0 L796.9,496.0 L798.8,496.0 L800.8,496.0 L802.8,496.0 L804.7,496.0 L806.7,496.0 L808.6,496.0 L810.6,496.0 L812.6,496.0 L814.5,496.0 L816.5,496.0 L818.4,496.0 L820.4,496.0 L822.4,496.0 L824.3,496.0 L826.3,496.0 L828.2,496.0 L830.2,496.0 L832.2,496.0 L834.1,496.0 L836.1,496.0 L838.0,496.0 L840.0,496.0" fill="none" stroke="#1971c2" stroke-width="2.5" stroke-linejoin="round"/>
<text x="834" y="336" text-anchor="end" fill="#2b8a3e" font-weight="600">6 segments</text>
<text x="456" y="424.0" fill="#c92a2a" font-size="12">threshold</text>
<text x="430.0" y="548" text-anchor="middle" fill="#495057" font-size="13">green: time above the threshold (segments). Height doesn't matter, only how the time above is split.</text>
</svg>